<svg width="100" height="100" viewBox="0 0 100 100" fill="none" xmlns="http://www.w3.org/2000/svg">
<rect width="100" height="100" rx="50" fill="white"/>
<path d="M47.008 33.4V67H39.328V58.072H32.224L26.272 67H18.064L25.072 56.872C22.8 55.944 21.056 54.552 19.84 52.696C18.624 50.808 18.016 48.552 18.016 45.928C18.016 43.336 18.608 41.112 19.792 39.256C20.976 37.368 22.656 35.928 24.832 34.936C27.008 33.912 29.568 33.4 32.512 33.4H47.008ZM32.704 39.736C30.496 39.736 28.8 40.248 27.616 41.272C26.464 42.296 25.888 43.816 25.888 45.832C25.888 47.784 26.448 49.288 27.568 50.344C28.688 51.4 30.336 51.928 32.512 51.928H39.328V39.736H32.704ZM68.098 40.792C70.85 40.792 73.25 41.336 75.298 42.424C77.346 43.512 78.93 45.064 80.05 47.08C81.17 49.096 81.73 51.448 81.73 54.136C81.73 56.76 81.202 59.08 80.146 61.096C79.09 63.08 77.602 64.632 75.682 65.752C73.762 66.84 71.554 67.384 69.058 67.384C65.762 67.384 63.186 66.344 61.33 64.264V76.312H53.842V54.184C53.842 51.528 54.434 49.192 55.618 47.176C56.802 45.16 58.466 43.592 60.61 42.472C62.754 41.352 65.25 40.792 68.098 40.792ZM67.762 61.24C69.714 61.24 71.298 60.584 72.514 59.272C73.73 57.96 74.338 56.248 74.338 54.136C74.338 51.992 73.73 50.264 72.514 48.952C71.298 47.608 69.714 46.936 67.762 46.936C65.81 46.936 64.226 47.592 63.01 48.904C61.826 50.216 61.234 51.944 61.234 54.088C61.234 56.232 61.826 57.96 63.01 59.272C64.194 60.584 65.778 61.24 67.762 61.24Z" fill="#D50032"/>
</svg>
